<svg width="24" height="25" viewBox="0 0 24 25" fill="none" xmlns="http://www.w3.org/2000/svg">
<g clip-path="url(#clip0_237_285)">
<path d="M12.5 5C12.5 5.55 12.3042 6.02083 11.9125 6.4125C11.5208 6.80417 11.05 7 10.5 7C10.2833 7 10.0833 6.97083 9.9 6.9125C9.71667 6.85417 9.53333 6.75833 9.35 6.625C8.95 6.75833 8.62917 7 8.3875 7.35C8.14583 7.7 8.025 8.08333 8.025 8.5H21L20 15.5H15.1V13.5H18.275C18.3583 13 18.4292 12.5 18.4875 12C18.5458 11.5 18.6167 11 18.7 10.5H5.3C5.38333 11 5.45417 11.5 5.5125 12C5.57083 12.5 5.64167 13 5.725 13.5H8.9V15.5H4L3 8.5H6C6 7.68333 6.225 6.94167 6.675 6.275C7.125 5.60833 7.73333 5.11667 8.5 4.8C8.55 4.28333 8.76667 3.85417 9.15 3.5125C9.53333 3.17083 9.98333 3 10.5 3C11.05 3 11.5208 3.19583 11.9125 3.5875C12.3042 3.97917 12.5 4.45 12.5 5ZM9.775 19.5H14.225L14.8 13.5H9.2L9.775 19.5ZM8 21.5L7.25 13.7C7.18333 13.1167 7.35 12.6042 7.75 12.1625C8.15 11.7208 8.64167 11.5 9.225 11.5H14.775C15.3583 11.5 15.85 11.7208 16.25 12.1625C16.65 12.6042 16.8167 13.1167 16.75 13.7L16 21.5H8Z" fill="black"/>
</g>
<defs>
<clipPath id="clip0_237_285">
<rect width="24" height="24" fill="white" transform="translate(0 0.5)"/>
</clipPath>
</defs>
</svg>
