<svg width="40" height="40" viewBox="0 0 40 40" fill="none" xmlns="http://www.w3.org/2000/svg">
<path d="M11.6667 36.6667V21.4167C10.25 21.0278 9.06251 20.25 8.10417 19.0833C7.14584 17.9167 6.66667 16.5556 6.66667 15V3.33334H10V15H11.6667V3.33334H15V15H16.6667V3.33334H20V15C20 16.5556 19.5208 17.9167 18.5625 19.0833C17.6042 20.25 16.4167 21.0278 15 21.4167V36.6667H11.6667ZM28.3333 36.6667V23.3333H23.3333V11.6667C23.3333 9.36111 24.1458 7.39584 25.7708 5.77084C27.3958 4.14584 29.3611 3.33334 31.6667 3.33334V36.6667H28.3333Z" fill="#464646"/>
</svg>
