<svg width="24" height="25" viewBox="0 0 24 25" fill="none" xmlns="http://www.w3.org/2000/svg">
<g clipPath="url(#clip0_237_300)">
<g clipPath="url(#clip0_237_300)">
<path d="M13.4 22.4L12 21L15.55 17.45L7.05001 8.95001L3.50001 12.5L2.10001 11.1L3.50001 9.65001L2.10001 8.25001L4.20001 6.15001L2.80001 4.70001L4.20001 3.30001L5.65001 4.70001L7.75001 2.60001L9.15001 4.00001L10.6 2.60001L12 4.00001L8.45001 7.55001L16.95 16.05L20.5 12.5L21.9 13.9L20.5 15.35L21.9 16.75L19.8 18.85L21.2 20.3L19.8 21.7L18.35 20.3L16.25 22.4L14.85 21L13.4 22.4Z" fill="black"/>
</g>
</g>
<defs>
<clipPath id="clip0_237_300">
<rect width="24" height="24" fill="white" transform="translate(0 0.5)"/>
</clipPath>
<clipPath id="clip1_237_300">
<rect width="24" height="24" fill="white" transform="translate(0 0.5)"/>
</clipPath>
</defs>
</svg>
